<svg width="18" height="4" viewBox="0 0 18 4" fill="none" xmlns="http://www.w3.org/2000/svg">
<path d="M10 1.99988C10 1.44759 9.55228 0.999878 9 0.999878C8.44772 0.999878 8 1.44759 8 1.99988C8 2.55216 8.44772 2.99988 9 2.99988C9.55228 2.99988 10 2.55216 10 1.99988Z" stroke="#97BEF8" stroke-width="2" stroke-linecap="round" stroke-linejoin="round"/>
<path d="M3 1.99988C3 1.44759 2.55228 0.999878 2 0.999878C1.44772 0.999878 1 1.44759 1 1.99988C1 2.55216 1.44772 2.99988 2 2.99988C2.55228 2.99988 3 2.55216 3 1.99988Z" stroke="#97BEF8" stroke-width="2" stroke-linecap="round" stroke-linejoin="round"/>
<path d="M17 1.99988C17 1.44759 16.5523 0.999878 16 0.999878C15.4477 0.999878 15 1.44759 15 1.99988C15 2.55216 15.4477 2.99988 16 2.99988C16.5523 2.99988 17 2.55216 17 1.99988Z" stroke="#97BEF8" stroke-width="2" stroke-linecap="round" stroke-linejoin="round"/>
</svg>
