<svg fill="none" height="25" viewBox="0 0 25 25" width="25" xmlns="http://www.w3.org/2000/svg"><path d="m22.3194 17.5776v3c.0011.2785-.0559.5541-.1675.8093s-.2752.4843-.4804.6725c-.2053.1883-.4476.3317-.7114.4209s-.5434.1223-.8207.0973c-3.0772-.3344-6.033-1.3859-8.63-3.07-2.4162-1.5354-4.46469-3.5839-6.00002-6-1.69003-2.6088-2.74176-5.57904-3.07-8.67003-.02499-.27654.00787-.55524.0965-.81838.08862-.26313.23107-.50493.41826-.71.1872-.20507.41504-.36891.66903-.4811.25398-.11219.52855-.17026.80621-.17052h3c.4853-.00478.95579.16708 1.32376.48353s.60831.75591.67624 1.23647c.12662.96006.36145 1.90272.70002 2.81.1345.35792.1636.74691.0839 1.12088-.0798.37396-.26506.71723-.53392.98912l-1.27 1.27003c1.42355 2.5035 3.49642 4.5764 6.00002 6l1.27-1.27c.2719-.2689.6151-.4542.9891-.5339.374-.0798.763-.0507 1.1209.0839.9072.3385 1.8499.5733 2.81.7.4857.0685.9294.3132 1.2465.6875s.4856.852.4735 1.3425z" stroke="#98bff9" stroke-linecap="round" stroke-linejoin="round" stroke-width="2"/></svg>