<svg fill="none" height="47" viewBox="0 0 47 47" width="47" xmlns="http://www.w3.org/2000/svg"><g fill="#98bff9"><path d="m23.5 47c-12.9577 0-23.5-10.5423-23.5-23.5s10.5423-23.5 23.5-23.5 23.5 10.5423 23.5 23.5-10.5423 23.5-23.5 23.5zm0-44.06249c-11.3384 0-20.56249 9.22409-20.56249 20.56249s9.22409 20.5625 20.56249 20.5625 20.5625-9.2241 20.5625-20.5625-9.2241-20.56249-20.5625-20.56249z"/><path d="m23.5001 35.25c-6.4789 0-11.7501-5.2711-11.7501-11.75 0-6.479 5.2711-11.7501 11.7501-11.7501 3.1856 0 6.1661 1.2537 8.3951 3.5299l-2.0998 2.0539c-1.671-1.7069-3.9057-2.6464-6.2953-2.6464-4.8596 0-8.8126 3.9531-8.8126 8.8126s3.953 8.8125 8.8126 8.8125c2.3882 0 4.6228-.9395 6.2953-2.6463l2.0969 2.0568c-2.2276 2.2749-5.208 3.527-8.3922 3.5271z"/></g></svg>