<svg width="170" height="32" viewBox="0 0 170 32" fill="none" xmlns="http://www.w3.org/2000/svg">
<path d="M10.844 31.576C8.804 31.576 6.968 31.144 5.336 30.28C3.716 29.416 2.432 28.246 1.484 26.77C0.536 25.282 0.0620001 23.608 0.0620001 21.748C0.0620001 20.368 0.332 19.09 0.872 17.914C1.412 16.726 2.162 15.688 3.122 14.8C4.082 13.912 5.204 13.222 6.488 12.73C7.784 12.238 9.188 11.992 10.7 11.992C12.62 11.992 14.3 12.394 15.74 13.198C17.192 13.99 18.326 15.1 19.142 16.528C19.958 17.944 20.366 19.594 20.366 21.478C20.366 21.634 20.36 21.784 20.348 21.928C20.348 22.06 20.33 22.36 20.294 22.828H7.802C7.802 23.416 7.94 23.926 8.216 24.358C8.492 24.778 8.888 25.102 9.404 25.33C9.932 25.558 10.556 25.672 11.276 25.672C11.948 25.672 12.524 25.552 13.004 25.312C13.496 25.072 14.066 24.64 14.714 24.016L20.078 26.68C19.214 28.204 17.96 29.404 16.316 30.28C14.684 31.144 12.86 31.576 10.844 31.576ZM8.018 19.3H13.058C12.986 18.808 12.842 18.406 12.626 18.094C12.41 17.77 12.128 17.53 11.78 17.374C11.432 17.218 11.006 17.14 10.502 17.14C9.974 17.14 9.524 17.224 9.152 17.392C8.792 17.56 8.516 17.806 8.324 18.13C8.132 18.442 8.03 18.832 8.018 19.3Z" fill="#98BFF9"/>
<path d="M39.1701 31.576C36.9261 31.576 34.8201 31.18 32.8521 30.388C30.8841 29.596 29.1501 28.498 27.6501 27.094C26.1501 25.678 24.9801 24.04 24.1401 22.18C23.3001 20.32 22.8801 18.322 22.8801 16.186C22.8801 14.038 23.3001 12.034 24.1401 10.174C24.9921 8.302 26.1621 6.664 27.6501 5.26C29.1501 3.844 30.8781 2.74 32.8341 1.948C34.8021 1.156 36.9021 0.759999 39.1341 0.759999C40.9581 0.759999 42.6921 1.018 44.3361 1.534C45.9921 2.05 47.4081 2.728 48.5841 3.568L46.0641 8.518C45.2601 7.882 44.2821 7.384 43.1301 7.024C41.9781 6.664 40.7721 6.484 39.5121 6.484C38.0361 6.484 36.6681 6.73 35.4081 7.222C34.1601 7.714 33.0681 8.398 32.1321 9.274C31.2081 10.15 30.4881 11.176 29.9721 12.352C29.4561 13.528 29.1981 14.8 29.1981 16.168C29.1981 17.536 29.4561 18.808 29.9721 19.984C30.4881 21.16 31.2081 22.186 32.1321 23.062C33.0681 23.938 34.1601 24.622 35.4081 25.114C36.6681 25.606 38.0361 25.852 39.5121 25.852C40.7721 25.852 41.9781 25.672 43.1301 25.312C44.2821 24.952 45.2601 24.454 46.0641 23.818L48.5841 28.768C47.4561 29.584 46.0701 30.256 44.4261 30.784C42.7821 31.312 41.0301 31.576 39.1701 31.576ZM52.5134 31V12.568H58.0394V31H52.5134ZM55.2854 8.734C54.6854 8.734 54.1334 8.59 53.6294 8.302C53.1374 8.002 52.7414 7.6 52.4414 7.096C52.1414 6.592 51.9914 6.04 51.9914 5.44C51.9914 4.84 52.1414 4.294 52.4414 3.802C52.7414 3.31 53.1374 2.92 53.6294 2.632C54.1334 2.332 54.6854 2.182 55.2854 2.182C55.8854 2.182 56.4314 2.332 56.9234 2.632C57.4154 2.92 57.8054 3.31 58.0934 3.802C58.3934 4.294 58.5434 4.84 58.5434 5.44C58.5434 6.04 58.3934 6.592 58.0934 7.096C57.8054 7.6 57.4154 8.002 56.9234 8.302C56.4314 8.59 55.8854 8.734 55.2854 8.734ZM64.5549 31V12.568H70.0809V14.62C70.7889 13.828 71.6709 13.192 72.7269 12.712C73.7949 12.232 74.9709 11.992 76.2549 11.992C77.6709 11.992 78.9129 12.304 79.9809 12.928C81.0609 13.54 81.9069 14.398 82.5189 15.502C83.1309 16.594 83.4369 17.872 83.4369 19.336V31H77.9109V20.506C77.9109 19.186 77.5629 18.16 76.8669 17.428C76.1829 16.684 75.2409 16.312 74.0409 16.312C73.2249 16.312 72.5169 16.48 71.9169 16.816C71.3289 17.14 70.8729 17.59 70.5489 18.166C70.2369 18.73 70.0809 19.372 70.0809 20.092V31H64.5549ZM98.4421 31.576C96.4501 31.576 94.6621 31.15 93.0781 30.298C91.5061 29.434 90.2581 28.264 89.3341 26.788C88.4101 25.312 87.9481 23.644 87.9481 21.784C87.9481 20.416 88.2061 19.138 88.7221 17.95C89.2501 16.762 89.9821 15.724 90.9181 14.836C91.8541 13.936 92.9401 13.24 94.1761 12.748C95.4121 12.244 96.7501 11.992 98.1901 11.992C100.11 11.992 101.79 12.394 103.23 13.198C104.682 13.99 105.81 15.094 106.614 16.51C107.43 17.926 107.838 19.576 107.838 21.46C107.838 21.616 107.832 21.754 107.82 21.874C107.82 21.982 107.802 22.192 107.766 22.504H93.6361C93.6361 23.44 93.8461 24.256 94.2661 24.952C94.6981 25.648 95.2981 26.194 96.0661 26.59C96.8341 26.974 97.7281 27.166 98.7481 27.166C99.7081 27.166 100.554 26.98 101.286 26.608C102.03 26.236 102.744 25.642 103.428 24.826L107.406 26.824C106.542 28.312 105.318 29.476 103.734 30.316C102.15 31.156 100.386 31.576 98.4421 31.576ZM93.8341 19.444H102.402C102.282 18.736 102.024 18.124 101.628 17.608C101.244 17.092 100.752 16.696 100.152 16.42C99.5521 16.144 98.8741 16.006 98.1181 16.006C97.3141 16.006 96.6061 16.144 95.9941 16.42C95.3821 16.696 94.8901 17.092 94.5181 17.608C94.1461 18.124 93.9181 18.736 93.8341 19.444ZM112.754 31V12.568H118.28V14.62C119.192 13.708 120.098 13.042 120.998 12.622C121.898 12.202 122.87 11.992 123.914 11.992C125.33 11.992 126.608 12.31 127.748 12.946C128.888 13.582 129.704 14.434 130.196 15.502C131.096 14.338 132.062 13.462 133.094 12.874C134.126 12.286 135.308 11.992 136.64 11.992C137.972 11.992 139.154 12.268 140.186 12.82C141.218 13.372 142.028 14.158 142.616 15.178C143.216 16.186 143.516 17.38 143.516 18.76V31H137.99V20.272C137.99 19.072 137.678 18.13 137.054 17.446C136.43 16.75 135.596 16.402 134.552 16.402C133.832 16.402 133.196 16.552 132.644 16.852C132.104 17.152 131.678 17.554 131.366 18.058C131.054 18.562 130.898 19.12 130.898 19.732V31H125.372V20.164C125.372 19.024 125.066 18.112 124.454 17.428C123.854 16.744 123.02 16.402 121.952 16.402C121.244 16.402 120.608 16.552 120.044 16.852C119.492 17.152 119.06 17.56 118.748 18.076C118.436 18.592 118.28 19.162 118.28 19.786V31H112.754ZM157.424 31.576C155.732 31.576 154.19 31.156 152.798 30.316C151.418 29.464 150.32 28.3 149.504 26.824C148.7 25.336 148.298 23.644 148.298 21.748C148.298 19.9 148.688 18.244 149.468 16.78C150.248 15.304 151.322 14.14 152.69 13.288C154.07 12.424 155.648 11.992 157.424 11.992C158.732 11.992 159.95 12.244 161.078 12.748C162.218 13.24 163.148 13.93 163.868 14.818V12.568H169.394V31H163.868V28.57C163.028 29.542 162.062 30.286 160.97 30.802C159.878 31.318 158.696 31.576 157.424 31.576ZM159.062 26.878C160.022 26.878 160.874 26.662 161.618 26.23C162.362 25.786 162.944 25.18 163.364 24.412C163.784 23.644 163.994 22.768 163.994 21.784C163.994 20.788 163.778 19.912 163.346 19.156C162.926 18.388 162.344 17.788 161.6 17.356C160.868 16.912 160.022 16.69 159.062 16.69C158.114 16.69 157.268 16.912 156.524 17.356C155.78 17.788 155.192 18.388 154.76 19.156C154.328 19.924 154.112 20.8 154.112 21.784C154.112 22.768 154.322 23.644 154.742 24.412C155.174 25.18 155.762 25.786 156.506 26.23C157.25 26.662 158.102 26.878 159.062 26.878Z" fill="#757575"/>
</svg>
